<?xml version="1.0" standalone="no"?>
<!DOCTYPE svg PUBLIC "-//W3C//DTD SVG 20010904//EN"
 "http://www.w3.org/TR/2001/REC-SVG-20010904/DTD/svg10.dtd">
<svg version="1.0" xmlns="http://www.w3.org/2000/svg"
 width="700.000000pt" height="700.000000pt" viewBox="0 0 700.000000 700.000000"
 preserveAspectRatio="xMidYMid meet">
<metadata>
Created by potrace 1.11, written by Peter Selinger 2001-2013
</metadata>
<g transform="translate(0.000000,700.000000) scale(0.100000,-0.100000)"
fill="#000000" stroke="none">
<path d="M0 3500 l0 -3500 3500 0 3500 0 0 3500 0 3500 -3500 0 -3500 0 0
-3500z m3686 2397 c0 -1 128 -317 284 -702 323 -796 501 -1247 496 -1252 -2
-2 -45 -8 -97 -14 -195 -22 -386 -107 -529 -236 -28 -25 -53 -44 -55 -42 -5 6
-303 739 -390 961 -39 98 -73 178 -76 178 -13 0 -109 -228 -497 -1185 -421
-1037 -498 -1224 -511 -1238 -4 -4 -60 15 -123 43 l-116 51 18 57 c26 85 36
110 462 1147 217 528 513 1248 657 1600 l262 640 107 -3 c59 -2 107 -5 108 -5z
m2156 -1742 c84 -11 36 -51 -152 -129 -266 -110 -384 -218 -494 -451 -19 -38
-68 -144 -111 -235 -93 -197 -194 -372 -273 -472 -117 -146 -363 -355 -610
-519 -224 -148 -419 -216 -695 -240 -149 -13 -249 -4 -314 30 l-36 18 104 6
c228 14 430 109 578 274 75 82 191 248 273 388 290 493 300 510 409 640 217
262 435 436 711 570 235 114 401 146 610 120z m-1204 -358 c-272 -229 -376
-367 -512 -680 -74 -169 -146 -316 -197 -402 -122 -202 -289 -356 -447 -411
-73 -25 -236 -49 -400 -59 l-104 -6 37 38 37 38 -108 6 c-60 3 -122 10 -139
14 -88 23 -181 96 -230 180 -57 96 -69 245 -29 359 l17 48 33 -63 c56 -104
100 -139 176 -139 62 1 122 31 153 78 67 102 29 218 -94 290 -57 33 -47 36
104 30 133 -6 184 -26 262 -104 94 -96 139 -235 115 -356 -21 -107 -57 -164
-155 -248 -48 -41 -84 -76 -79 -78 15 -5 100 36 160 76 70 48 208 190 244 252
45 77 94 208 148 390 92 314 153 455 241 553 166 186 448 291 797 296 l93 1
-123 -103z m-3266 -872 c14 -16 82 -81 150 -143 432 -391 884 -624 1383 -713
113 -20 163 -24 375 -24 371 0 646 46 1003 167 66 22 120 38 123 36 12 -13
-151 -120 -271 -179 -216 -105 -380 -156 -641 -201 -109 -18 -169 -22 -379
-22 -304 -1 -475 20 -741 93 -381 104 -778 302 -995 497 -116 104 -155 168
-184 298 -20 88 -15 140 26 270 l20 66 53 -57 c29 -32 65 -71 78 -88z m3824
-878 l302 -742 270 1 270 1 6 -51 c3 -28 6 -74 6 -103 l0 -51 -177 -4 c-98 -1
-573 -1 -1055 1 l-878 3 0 114 0 114 340 0 c196 0 340 4 340 9 0 14 -170 479
-240 655 l-62 158 63 59 c35 32 59 58 52 59 -7 0 -41 -11 -77 -24 -69 -25 -86
-21 -86 19 0 27 23 47 140 125 135 90 220 161 340 288 62 64 113 110 125 111
17 0 61 -100 321 -742z m-3238 -51 c26 -13 74 -31 108 -41 l61 -17 -33 -86
c-18 -48 -56 -141 -84 -207 -47 -108 -130 -314 -130 -322 0 -1 152 -4 338 -5
l337 -3 3 -76 c3 -76 3 -77 -25 -84 -15 -5 -378 -10 -805 -12 l-778 -4 0 80 0
81 318 0 317 0 24 53 c13 28 63 149 112 267 116 280 171 400 181 400 5 0 30
-11 56 -24z"/>
</g>
</svg>
