<?xml version="1.0" encoding="utf-8"?>
<!-- Generator: Adobe Illustrator 21.0.0, SVG Export Plug-In . SVG Version: 6.00 Build 0)  -->
<svg version="1.1" id="Capa_1" xmlns="http://www.w3.org/2000/svg" xmlns:xlink="http://www.w3.org/1999/xlink" x="0px" y="0px"
	 viewBox="0 0 113.8 107.4" enable-background="new 0 0 113.8 107.4" xml:space="preserve">
<g>
	<g id="_x23_6c6d6eff">
		<path fill="#FFFFFF" d="M56.4,0c1.6,0,3.3,0.1,4.9,0.1c5.8,14.7,12,29.2,17.7,43.9c-5.8,0-11.4,2.4-15.5,6.6
			C60,42,56.3,33.6,53,25c-1.2,1.9-2,4-2.8,6.1c-4.8,11.8-9.6,23.6-14.3,35.4c-0.1,0.3-0.4,1-0.5,1.4c-1.7,3.8-3.1,7.7-4.8,11.5
			c-1.8-0.7-3.6-1.5-5.4-2.4c0.5-2.4,1.5-4.6,2.5-6.9C37.3,46.7,46.7,23.3,56.4,0z"/>
		<path fill="#FFFFFF" d="M87.1,69.5c0.2-0.1,0.7-0.2,0.9-0.3c4.4,11.1,9,22.2,13.5,33.3c4,0.1,8,0.1,12-0.1
			c0.3,1.6,0.4,3.2,0.4,4.8c-2.6,0-5.2,0-7.8,0.1c-0.2,0-0.6,0-0.8,0c-12.9-0.2-25.8,0-38.7-0.1c0-1.7,0-3.5,0-5.2
			c5.1,0,10.1,0,15.2,0c-2.2-6.2-4.4-12.4-6.9-18.4c1.1-0.8,2.1-1.7,3.1-2.6c-1.2,0.4-2.4,0.8-3.6,1.2c-1.5-1.8,1-2.6,2.1-3.5
			C80.5,76.5,84,73.2,87.1,69.5z"/>
		<path fill="#FFFFFF" d="M14.2,102.6c2.6-5.3,4.4-11,7-16.3c1.6,1,3.5,1.6,5.3,2.1c-1.5,4.7-4,9.1-5.5,13.8c5,0,10,0,15.1,0
			c0,1.2,0.1,2.4,0.1,3.6c-2.5,0.5-5.1,0.4-7.6,0.4c-9.5,0-19,0-28.4,0c0-0.9,0-2.8,0-3.7C4.7,102.6,9.5,102.5,14.2,102.6z"/>
	</g>
	<g id="_x23_009966ff">
		<path fill="#FFFFFF" d="M95.9,41.5c4.5-2.3,9.8-3.4,14.8-2.3c-0.8,1.1-1.9,1.8-3.2,2.2c-3.2,1.2-6.4,2.5-8.8,5
			c-2.9,3-4.3,7.1-6.1,10.8c-2.4,5.3-5.3,10.5-9.7,14.5c-3.6,3.2-7.4,6.1-11.5,8.7c-5.4,3.3-11.8,4.9-18.1,4.6
			c-1.5-0.1-3-0.4-4.2-1.4c3.5,0.1,7.1-0.4,10.3-2.2c3.7-1.9,6.3-5.2,8.6-8.6c4.2-5.9,6.9-12.8,11.6-18.4
			C84.2,49,89.5,44.3,95.9,41.5z"/>
		<path fill="#FFFFFF" d="M65,51.5c5-5.6,13.1-7.1,20.3-6.7c-3,2.6-6.4,5-8.9,8.1c-3.9,4.3-5.4,10-8,15.1
			c-2.4,4.9-5.7,9.7-10.8,12.2c-4,1.6-8.4,1.5-12.6,1.8c0.5-0.4,1.4-1.3,1.8-1.8c-2.7,0.1-5.6,0.2-7.9-1.4c-3.6-2.3-4.8-7-3.5-10.9
			c0.1-0.3,0.4-1,0.5-1.4c0.9,1.9,1.9,4.8,4.6,4.6c2.6,0.4,4.9-2.6,4-5.1c-0.5-1.9-2.5-2.7-4-3.7c2.8,0,6-0.5,8.4,1.3
			c3.2,2.3,4.8,6.6,3.5,10.4c-0.6,2.9-3.3,4.3-5.3,6.1c3.4-0.9,6.1-3.4,8.3-6.1C60.4,67.3,59.8,58.1,65,51.5z"/>
		<path fill="#FFFFFF" d="M6.6,63c10.8,12.5,26,22.2,42.8,23c8.4,0.3,16.8-1,24.8-3.7c1.2-0.4,2.4-0.8,3.6-1.2c-1,0.9-2,1.8-3.1,2.6
			C55.5,95.1,30.1,91.9,12,79.4c-2.8-2.1-6-4.5-6.5-8.3C4.7,68.4,5.8,65.6,6.6,63z"/>
	</g>
</g>
</svg>
