<?xml version="1.0" encoding="iso-8859-1"?>
<!-- Generator: Adobe Illustrator 17.1.0, SVG Export Plug-In . SVG Version: 6.00 Build 0)  -->
<!DOCTYPE svg PUBLIC "-//W3C//DTD SVG 1.1//EN" "http://www.w3.org/Graphics/SVG/1.1/DTD/svg11.dtd">
<svg version="1.1" id="Capa_1" xmlns="http://www.w3.org/2000/svg" xmlns:xlink="http://www.w3.org/1999/xlink" x="0px" y="0px"
	 viewBox="0 0 404.242 404.242" style="enable-background:new 0 0 404.242 404.242;" xml:space="preserve">
<g>
	<circle style="fill:#fff;" cx="64.029" cy="59.148" r="9.924"/>
	<circle style="fill:#fff;" cx="95.873" cy="59.148" r="9.924"/>
	<circle style="fill:#fff;" cx="276.525" cy="59.148" r="9.924"/>
	<circle style="fill:#fff;" cx="308.369" cy="59.148" r="9.924"/>
	<circle style="fill:#fff;" cx="340.213" cy="59.148" r="9.924"/>
	<path style="fill:#fff;" d="M202.121,329.305c48.353,0,87.689-39.337,87.689-87.689c0-48.352-39.337-87.689-87.689-87.689
		c-48.352,0-87.69,39.337-87.69,87.689C114.432,289.967,153.769,329.305,202.121,329.305z M202.121,171.871
		c38.518,0,69.742,31.227,69.742,69.744c0,0.511-0.027,1.015-0.039,1.522c-3.096,2.583-6.671,4.867-12.798,4.867
		c-7.296,0-10.977-3.235-14.534-6.361c-3.541-3.114-6.886-6.054-13.714-6.054c-6.828,0-10.172,2.94-13.712,6.054
		c-3.558,3.126-7.236,6.361-14.532,6.361c-7.293,0-10.972-3.235-14.529-6.361c-3.54-3.114-6.886-6.054-13.71-6.054
		c-6.826,0-10.172,2.94-13.712,6.052c-3.556,3.128-7.236,6.363-14.531,6.363c-6.698,0-10.346-2.729-13.653-5.595
		c-0.003-0.266-0.02-0.528-0.02-0.795C132.379,203.098,163.603,171.871,202.121,171.871z"/>
	<path style="fill:#fff;" d="M31.797,404.242h340.648V78.988H31.797V404.242z M202.121,133.926
		c59.38,0,107.689,48.309,107.689,107.689c0,59.38-48.31,107.689-107.689,107.689c-59.38,0-107.69-48.309-107.69-107.689
		C94.432,182.235,142.741,133.926,202.121,133.926z"/>
	<rect x="31.797" y="0" style="fill:#fff;" width="340.648" height="35"/>
</g>
<g>
</g>
<g>
</g>
<g>
</g>
<g>
</g>
<g>
</g>
<g>
</g>
<g>
</g>
<g>
</g>
<g>
</g>
<g>
</g>
<g>
</g>
<g>
</g>
<g>
</g>
<g>
</g>
<g>
</g>
</svg>
