<?xml version="1.0" encoding="utf-8"?>
<!-- Generator: Adobe Illustrator 21.0.0, SVG Export Plug-In . SVG Version: 6.00 Build 0)  -->
<svg version="1.1" id="Capa_1" xmlns="http://www.w3.org/2000/svg" xmlns:xlink="http://www.w3.org/1999/xlink" x="0px" y="0px"
	 viewBox="0 0 115.2 173.8" style="enable-background:new 0 0 115.2 173.8;" xml:space="preserve">
<style type="text/css">
	.st0{fill:#6C6D6E;}
	.st1{fill:#009966;}
	.st2{fill:#019967;}
	.st3{fill:#019966;}
	.st4{fill:#6E6F70;}
	.st5{fill:#6D6E6F;}
</style>
<g id="_x23_6c6d6eff">
	<path class="st0" d="M57,0c1.6,0,3.3,0.1,4.9,0.1C67.7,14.8,74,29.3,79.7,44c-5.8,0-11.4,2.4-15.5,6.6C60.6,42,57,33.6,53.6,25
		c-1.2,1.9-2,4-2.8,6.1c-4.8,11.8-9.6,23.6-14.3,35.4c-0.1,0.3-0.4,1-0.5,1.4c-1.7,3.8-3.1,7.7-4.8,11.5c-1.8-0.7-3.6-1.5-5.4-2.4
		c0.5-2.4,1.5-4.6,2.5-6.9C37.9,46.7,47.3,23.3,57,0z"/>
	<path class="st0" d="M87.7,69.5c0.2-0.1,0.7-0.2,0.9-0.3c4.4,11.1,9,22.2,13.5,33.3c4,0.1,8,0.1,12-0.1c0.3,1.6,0.4,3.2,0.4,4.8
		c-2.6,0-5.2,0-7.8,0.1c-0.2,0-0.6,0-0.8,0c-12.9-0.2-25.8,0-38.7-0.1c0-1.7,0-3.5,0-5.2c5.1,0,10.1,0,15.2,0
		c-2.2-6.2-4.4-12.4-6.9-18.4c1.1-0.8,2.1-1.7,3.1-2.6c-1.2,0.4-2.4,0.8-3.6,1.2c-1.5-1.8,1-2.6,2.1-3.5
		C81.1,76.5,84.6,73.2,87.7,69.5z"/>
	<path class="st0" d="M14.8,102.6c2.6-5.3,4.4-11,7-16.3c1.6,1,3.5,1.6,5.3,2.1c-1.5,4.7-4,9.1-5.5,13.8c5,0,10,0,15.1,0
		c0,1.2,0.1,2.4,0.1,3.6c-2.5,0.5-5.1,0.4-7.6,0.4c-9.5,0-19,0-28.4,0c0-0.9,0-2.8,0-3.7C5.4,102.6,10.1,102.5,14.8,102.6z"/>
	<path class="st0" d="M0.3,142.1c37.8-0.2,75.5,0,113.3-0.1c0,0.8,0,2.3,0,3C75.8,145,38.1,145.2,0.3,145
		C0.3,144.3,0.3,142.8,0.3,142.1z"/>
</g>
<g id="_x23_009966ff">
	<path class="st1" d="M96.5,41.5c4.5-2.3,9.8-3.4,14.8-2.3c-0.8,1.1-1.9,1.8-3.2,2.2c-3.2,1.2-6.4,2.5-8.8,5
		c-2.9,3-4.3,7.1-6.1,10.8c-2.4,5.3-5.3,10.5-9.7,14.5c-3.6,3.2-7.4,6.1-11.5,8.7c-5.4,3.3-11.8,4.9-18.1,4.6
		c-1.5-0.1-3-0.4-4.2-1.4c3.5,0.1,7.1-0.4,10.3-2.2c3.7-1.9,6.3-5.2,8.6-8.6c4.2-5.9,6.9-12.8,11.6-18.4
		C84.8,49,90.1,44.3,96.5,41.5z"/>
	<path class="st1" d="M65.6,51.5c5-5.6,13.1-7.1,20.3-6.7c-3,2.6-6.4,5-8.9,8.1c-3.9,4.3-5.4,10-8,15.1c-2.4,4.9-5.7,9.7-10.8,12.2
		c-4,1.6-8.4,1.5-12.6,1.8c0.5-0.4,1.4-1.3,1.8-1.8c-2.7,0.1-5.6,0.2-7.9-1.4c-3.6-2.3-4.8-7-3.5-10.9c0.1-0.3,0.4-1,0.5-1.4
		c0.9,1.9,1.9,4.8,4.6,4.6c2.6,0.4,4.9-2.6,4-5.1c-0.5-1.9-2.5-2.7-4-3.7c2.8,0,6-0.5,8.4,1.3c3.2,2.3,4.8,6.6,3.5,10.4
		c-0.6,2.9-3.3,4.3-5.3,6.1c3.4-0.9,6.1-3.4,8.3-6.1C61.1,67.3,60.4,58.1,65.6,51.5z"/>
	<path class="st1" d="M7.3,63c10.8,12.5,26,22.2,42.8,23c8.4,0.3,16.8-1,24.8-3.7c1.2-0.4,2.4-0.8,3.6-1.2c-1,0.9-2,1.8-3.1,2.6
		c-19.3,11.5-44.7,8.3-62.8-4.2c-2.8-2.1-6-4.5-6.5-8.3C5.4,68.4,6.4,65.6,7.3,63z"/>
	<path class="st1" d="M35.6,113.7c1.9,0.6,4,0.7,5.9,1.6c0.5-0.2,1.4-0.6,1.8-0.8c0.1,2.2,0.2,4.3,0.1,6.5c-1.3-2.3-2.4-5.5-5.3-6.1
		c-2.5-1-5.6-0.1-7.1,2c-3.6,4.3-3.8,11.2-0.1,15.5c2.2,2.4,6.7,3,8.7,0.1c1.8-1.8,0.8-5.4-2-5.2c0-0.1,0-0.4-0.1-0.6
		c3.1,0.1,6.2,0.2,9.3,0c0,0.1-0.1,0.4-0.1,0.6c-0.7,0.1-2.1,0.4-2.7,0.5c-0.1,1.6-0.2,3.2-0.3,4.7c-4.6,2.3-10.3,3.4-15.1,0.7
		c-6.1-3.7-5.5-13.9,0.4-17.5C30.9,114.4,33.3,114.3,35.6,113.7z"/>
	<path class="st1" d="M47.2,114.3c3.6-0.1,7.2-0.1,10.9,0c-1.4,0.6-3.4,0.9-3.7,2.7c-0.4,4.4-0.4,8.8,0,13.1c0.2,2,1.7,3.9,3.8,4.1
		c2.4,0.2,6.2,0.7,7-2.4c0.2,0.1,0.7,0.4,0.9,0.5l0.3,0.4l0.3,0.3c-2.4,1-4.8,2.3-7.5,1.9c-3,0.1-7-0.6-8.2-3.9
		c-0.5-4.6,0.3-9.3-0.4-14C50.5,115.2,48.5,115,47.2,114.3z"/>
</g>
<g id="_x23_019967ff">
	<path class="st2" d="M105.8,107.4c0.2,0,0.6,0,0.8,0c0.2,0.4,0.6,1.1,0.8,1.4c-2.1,1.2-4.1,2.6-6.4,3.4
		C102.3,110.3,104.1,108.8,105.8,107.4z"/>
	<path class="st2" d="M63,114.3c2.7-0.1,5.4,0,8.1,0c-1.3,0.7-3.7,0.8-3.6,2.8c-0.1,5.2,0,10.4-0.7,15.6l-0.4-0.1l-0.3-0.4
		c0.7-5,0.8-10.1,0.5-15.2C66.3,115.3,64.4,114.8,63,114.3z"/>
	<path class="st2" d="M93,114.2c3.4,0.1,6.9,0,10.3,0.1c-1.1,0.5-3.8,0.8-2.5,2.6c1.2,2.6,3.2,4.8,4.7,7.3c2-2.6,4.9-5.2,4.5-8.8
		c-0.7-0.2-2.1-0.7-2.8-0.9c2.7-0.2,5.3-0.2,8-0.2c-3.7,1.4-5.4,5.2-7.7,8.1c-2,2.4-1.7,5.7-1.5,8.7c-0.1,1.9,1.7,2.8,3,3.7
		c-3.2-0.6-6.5-0.5-9.8-0.1c1-0.5,1.9-1,2.9-1.6c0.7-3.3,1.1-7-1.2-9.8C98.4,120.2,96.8,115.9,93,114.2z"/>
</g>
<g id="_x23_019966ff">
	<path class="st3" d="M10.8,114.7c0.3-0.2,0.8-0.5,1-0.7c2.7,5.8,5.1,11.7,7.9,17.5c0.7,1.5,2.3,2.2,3.6,3.2
		c-3.5-0.4-7,0.4-10.4-0.4c1.2-0.6,3.7-1.2,2.5-3c-0.5-1.6-1.3-3.2-2-4.7c-2.2,0.1-4.3,0.1-6.5,0.1c-1,2-1.9,4.1-1.8,6.4
		c0.6,0.3,1.7,0.9,2.3,1.2c-2.4,0.8-4.9,0.3-7.4,0.5c1.5-1,3.1-2.1,3.9-3.8C6.4,125.5,8.2,119.9,10.8,114.7 M7.4,125.5
		c1.9,0,3.8,0,5.7,0.1c-0.9-2.2-1.8-4.5-2.8-6.7C8.9,121,8.1,123.3,7.4,125.5z"/>
	<path class="st3" d="M81.4,114c1.7,0.6,1.9,2.7,2.7,4.1c2.3,5,4.3,10.3,7,15.1c1,0.4,2,0.9,3,1.4c-3.7,0-7.4,0-11.1,0
		c1-0.6,2-1.1,3-1.6c-0.1-2.3-1.2-4.3-2-6.3c-2.3-0.3-4.7-0.2-7-0.1c-0.6,1.9-1.3,3.7-2,5.5c0.9,0.8,1.9,1.7,2.9,2.5
		c-2.6-0.1-5.2-0.1-7.8,0c1.8-0.9,3.5-2.2,4.3-4.1C77,125,79.1,119.5,81.4,114 M80.5,118.8c-0.9,2.2-1.8,4.5-2.7,6.7
		c1.9,0,3.8,0,5.7,0C82.6,123.3,81.7,120.9,80.5,118.8z"/>
</g>
<g id="_x23_6e6f70ff">
	<path class="st4" d="M1.5,152.3c1,0,2.1,0,3.2,0c-0.8,1.2-1.2,2.5-1.1,3.9c1.5,0,3.1,0,4.6,0c-0.1-1.3-0.2-2.7-0.7-3.9
		c1,0.1,3.3-1.3,3.2,0.3c-1.9,2.3-1.8,5.4,0,7.7c0.1,1.8-2.2-1-3.1,0.3c0.4-1.3,0.6-2.6,0.7-3.9c-1.5,0-3.1,0-4.6-0.1
		c-0.3,1.5,1.2,2.6,1,4c-0.9,0.7-2.8,0.8-3.1-0.4C2.5,157.8,3,154.8,1.5,152.3z"/>
	<path class="st4" d="M31.7,152.5c2.6-1,6.1,0.5,6.4,3.5c0.4,3.9-5,6.3-7.8,3.7C27.5,157.8,28.5,153.3,31.7,152.5 M32.1,152.9
		c-3,1.9-1.9,8,2,7.4c2.9-1.5,2.3-5.2,1-7.6C34.4,152.8,32.9,152.9,32.1,152.9z"/>
	<path class="st4" d="M55.8,152.8c3-0.5,6-0.2,9,0c-0.9,1.6-2.9-0.1-4.2-0.2c0,2.5-0.6,5.2,0.8,7.4c1.1,1.8-3.8,1.9-2.8,0
		c1.1-2.3,0.6-4.9,0.6-7.3c-1.4,0.2-2.8,0.7-4.2,1.1C55.3,153.5,55.7,153,55.8,152.8z"/>
	<path class="st4" d="M82.5,152.3c2.4,0.1,4.8,0.2,7.1,0.8c-1.6,1.1-3.5-0.7-5.2-0.7c0,1-0.1,3-0.1,3.9c0.6,0,1.9-0.1,2.5-0.2
		l0.1,0.6c-0.7-0.1-2-0.1-2.7-0.2c0.2,1,0.6,2.9,0.8,3.9c1.4-0.3,2.9-0.6,4.3-1.1c-0.1,0.4-0.4,1.2-0.6,1.6c-2.1,0-4.2-0.6-6.2-0.3
		C83.4,157.9,83.4,155,82.5,152.3z"/>
	<path class="st4" d="M107.5,152.3c0.6,0.1,1.7,0.2,2.2,0.2c-0.4,2.5-0.4,5-0.4,7.5c1.8,0.2,3.7,0.6,5-0.9c-1.1,2.7-4.6,1.8-6.9,1.7
		C108.3,158,108.5,155,107.5,152.3z"/>
	<path class="st4" d="M45.2,168.9c0.2-0.5,0.6-1.5,0.8-2.1c1,1.3,2.2,2.3,3.9,2.5c-1,1.1-1.6,2.5-1.6,4c-1.4-0.3-2.8-0.2-4.1,0.4
		c0-0.7-0.1-2-0.1-2.6c-0.6-0.6-1.2-1.1-1.7-1.7C43,169.3,44.5,169.1,45.2,168.9z"/>
	<path class="st4" d="M68.9,169.5c1.4-0.3,2.3-1.2,3.2-2.2c1,1.1,2,2.2,3.8,2.1c-1.1,1.1-1.5,2.5-1.6,4.1c-1.4-0.3-2.7-0.3-4,0.4
		C70.1,172.2,69.8,170.8,68.9,169.5z"/>
	<path class="st4" d="M94.9,169.4c1.5-0.4,2.6-1.4,3.6-2.5c0.2,1.9,1.8,2.3,3.4,2.3c-1.2,1-1.5,2.6-1.7,4.1c-1.4-0.3-2.7-0.2-4,0.4
		C96.1,172.2,95.8,170.7,94.9,169.4z"/>
</g>
<g id="_x23_6d6e6fff">
	<path class="st5" d="M20.3,167c0.6,1.6,2.3,2.1,3.8,2.3c-1.1,1.1-1.8,2.4-1.8,4.1c-1.4-0.3-2.8-0.3-4.1,0.4c0-0.7-0.1-2-0.1-2.6
		c-0.5-0.4-1.4-1.2-1.8-1.6c0.9-0.2,1.9-0.4,2.8-0.6C19.4,168.4,20,167.5,20.3,167z"/>
</g>
</svg>
