<?xml version="1.0" encoding="UTF-8" ?>
<!DOCTYPE svg PUBLIC "-//W3C//DTD SVG 1.1//EN" "http://www.w3.org/Graphics/SVG/1.1/DTD/svg11.dtd">
<svg width="180pt" height="194pt" viewBox="0 0 180 194" version="1.1" xmlns="http://www.w3.org/2000/svg">
<g id="#e4e4e5ff">
<path fill="#e4e4e5" opacity="1.00" d=" M 0.00 0.00 L 180.00 0.00 L 180.00 194.00 L 0.00 194.00 L 0.00 0.00 M 88.89 10.96 C 79.19 34.26 69.78 57.69 60.17 81.03 C 59.21 83.26 58.23 85.50 57.68 87.89 C 59.45 88.76 61.24 89.57 63.07 90.30 C 64.77 86.51 66.17 82.59 67.85 78.79 C 66.51 82.69 67.73 87.49 71.32 89.74 C 73.63 91.35 76.55 91.28 79.24 91.16 C 78.80 91.60 77.90 92.47 77.45 92.91 C 81.67 92.67 86.06 92.79 90.04 91.15 C 95.07 88.71 98.41 83.88 100.80 78.99 C 103.46 73.95 104.90 68.19 108.84 63.92 C 111.40 60.76 114.72 58.40 117.77 55.78 C 110.59 55.37 102.46 56.83 97.46 62.43 C 92.29 69.03 92.95 78.31 87.93 85.01 C 85.81 87.72 83.06 90.16 79.68 91.11 C 81.68 89.31 84.38 87.85 84.98 84.99 C 86.28 81.21 84.68 76.88 81.44 74.63 C 79.03 72.78 75.84 73.28 73.02 73.32 C 74.49 74.32 76.50 75.09 76.97 76.97 C 77.92 79.42 75.57 82.41 72.97 82.05 C 70.31 82.24 69.31 79.33 68.39 77.41 C 73.11 65.58 77.94 53.79 82.70 41.98 C 83.49 39.90 84.29 37.81 85.48 35.92 C 88.85 44.52 92.47 53.00 96.08 61.50 C 100.12 57.31 105.72 54.94 111.55 54.94 C 105.84 40.22 99.60 25.72 93.82 11.03 C 92.18 11.02 90.53 11.00 88.89 10.96 M 128.39 52.43 C 122.02 55.24 116.71 59.93 112.18 65.13 C 107.52 70.75 104.86 77.66 100.62 83.56 C 98.34 86.93 95.71 90.28 91.99 92.16 C 88.86 93.91 85.25 94.38 81.72 94.32 C 82.90 95.31 84.44 95.66 85.95 95.72 C 92.24 96.01 98.62 94.43 104.00 91.15 C 108.09 88.63 111.90 85.68 115.48 82.50 C 119.87 78.58 122.81 73.36 125.18 68.04 C 126.99 64.35 128.32 60.26 131.25 57.25 C 133.63 54.79 136.86 53.45 140.03 52.30 C 141.29 51.92 142.43 51.22 143.19 50.12 C 138.16 49.07 132.93 50.16 128.39 52.43 M 39.13 73.92 C 38.29 76.55 37.23 79.32 38.07 82.10 C 38.53 85.83 41.75 88.26 44.54 90.35 C 62.57 102.84 87.99 106.07 107.29 94.56 C 109.79 100.63 111.93 106.83 114.16 113.00 C 109.10 113.00 104.05 112.99 99.00 113.00 C 99.00 114.75 99.01 116.49 99.00 118.23 C 111.89 118.31 124.78 118.14 137.67 118.33 C 135.94 119.79 134.20 121.28 132.89 123.14 C 135.22 122.39 137.25 120.98 139.34 119.76 C 139.13 119.40 138.72 118.68 138.51 118.32 C 141.10 118.25 143.69 118.22 146.28 118.22 C 146.24 116.60 146.22 114.97 145.88 113.39 C 141.88 113.55 137.88 113.54 133.88 113.44 C 129.39 102.36 124.82 91.31 120.43 80.19 C 120.21 80.27 119.77 80.41 119.55 80.48 C 116.50 84.13 112.99 87.42 108.79 89.73 C 107.73 90.57 105.23 91.36 106.74 93.21 C 98.79 95.90 90.35 97.19 81.96 96.94 C 65.13 96.11 49.89 86.45 39.13 73.92 M 46.69 113.58 C 41.96 113.43 37.23 113.51 32.50 113.51 C 32.51 114.43 32.53 116.28 32.55 117.21 C 42.03 117.29 51.51 117.22 60.99 117.25 C 63.53 117.27 66.10 117.40 68.61 116.87 C 68.57 115.67 68.54 114.47 68.52 113.27 C 63.50 113.22 58.48 113.25 53.46 113.26 C 55.01 108.54 57.42 104.16 58.96 99.44 C 57.14 98.90 55.31 98.33 53.69 97.30 C 51.06 102.59 49.26 108.25 46.69 113.58 M 67.43 124.67 C 65.22 125.26 62.81 125.39 60.89 126.74 C 54.97 130.38 54.44 140.54 60.50 144.27 C 65.23 146.96 70.92 145.79 75.56 143.53 C 75.58 141.94 75.69 140.36 75.82 138.78 C 76.50 138.65 77.87 138.39 78.55 138.25 C 78.57 138.11 78.60 137.81 78.62 137.66 C 75.53 137.80 72.44 137.79 69.35 137.65 C 69.36 137.79 69.39 138.07 69.40 138.21 C 72.21 138.06 73.20 141.63 71.41 143.45 C 69.36 146.34 64.87 145.68 62.69 143.31 C 59.00 139.02 59.17 132.10 62.80 127.83 C 64.39 125.69 67.45 124.81 69.94 125.79 C 72.89 126.46 73.92 129.59 75.26 131.93 C 75.30 129.76 75.26 127.59 75.13 125.43 C 74.67 125.63 73.75 126.04 73.29 126.24 C 71.42 125.41 69.36 125.27 67.43 124.67 M 42.64 125.62 C 40.11 130.90 38.25 136.50 35.73 141.80 C 35.00 143.55 33.37 144.59 31.87 145.63 C 34.33 145.37 36.88 145.91 39.26 145.12 C 38.68 144.83 37.52 144.25 36.94 143.95 C 36.82 141.64 37.78 139.54 38.74 137.51 C 40.91 137.52 43.08 137.50 45.25 137.44 C 45.99 138.98 46.75 140.51 47.29 142.14 C 48.47 143.98 45.96 144.60 44.78 145.18 C 48.15 146.00 51.70 145.23 55.15 145.58 C 53.86 144.64 52.24 143.94 51.55 142.41 C 48.77 136.64 46.37 130.69 43.66 124.90 C 43.41 125.08 42.90 125.44 42.64 125.62 M 79.06 125.29 C 80.35 125.94 82.39 126.18 82.50 127.97 C 83.15 132.60 82.42 137.30 82.88 141.94 C 84.06 145.22 87.99 145.86 91.03 145.81 C 93.70 146.15 96.13 144.88 98.50 143.88 L 98.23 143.58 L 98.59 143.64 C 99.37 138.49 99.21 133.27 99.33 128.06 C 99.25 126.12 101.61 125.94 102.93 125.28 C 100.24 125.25 97.55 125.22 94.87 125.29 C 96.28 125.79 98.15 126.24 98.37 128.03 C 98.69 133.09 98.61 138.19 97.90 143.21 C 97.67 143.08 97.23 142.84 97.01 142.72 C 96.27 145.87 92.49 145.41 90.04 145.17 C 87.97 145.01 86.42 143.10 86.25 141.11 C 85.88 136.75 85.82 132.33 86.27 127.97 C 86.50 126.17 88.55 125.88 89.92 125.29 C 86.30 125.22 82.68 125.22 79.06 125.29 M 113.32 124.93 C 110.97 130.41 108.84 135.99 106.40 141.43 C 105.66 143.39 103.92 144.64 102.13 145.57 C 104.73 145.48 107.34 145.48 109.94 145.60 C 108.96 144.80 108.00 143.97 107.06 143.13 C 107.73 141.29 108.39 139.45 109.02 137.59 C 111.35 137.47 113.69 137.39 116.02 137.65 C 116.85 139.70 117.87 141.71 118.00 143.96 C 116.95 144.39 115.93 144.91 114.97 145.52 C 118.66 145.50 122.34 145.52 126.03 145.50 C 125.05 144.98 124.03 144.53 123.02 144.09 C 120.30 139.25 118.33 134.04 116.03 128.99 C 115.26 127.58 115.05 125.53 113.32 124.93 M 124.87 125.18 C 128.71 126.90 130.23 131.12 132.78 134.17 C 135.08 136.93 134.61 140.72 133.95 143.98 C 133.00 144.49 132.05 145.02 131.09 145.53 C 134.33 145.11 137.63 145.02 140.86 145.62 C 139.55 144.73 137.75 143.82 137.87 141.94 C 137.62 139.03 137.29 135.68 139.33 133.29 C 141.63 130.38 143.40 126.65 147.05 125.21 C 144.38 125.21 141.70 125.23 139.04 125.42 C 139.75 125.64 141.16 126.09 141.86 126.31 C 142.26 129.87 139.33 132.53 137.34 135.11 C 135.84 132.65 133.85 130.48 132.68 127.83 C 131.44 126.09 134.13 125.76 135.20 125.24 C 131.75 125.22 128.31 125.26 124.87 125.18 M 32.19 153.07 C 32.19 153.78 32.18 155.21 32.18 155.92 C 69.95 156.12 107.71 155.93 145.48 156.01 C 145.48 155.26 145.48 153.74 145.48 152.99 C 107.71 153.07 69.95 152.89 32.19 153.07 M 33.41 163.31 C 34.89 165.75 34.41 168.80 33.41 171.32 C 33.70 172.57 35.66 172.42 36.52 171.76 C 36.69 170.37 35.15 169.22 35.47 167.72 C 37.02 167.74 38.56 167.75 40.11 167.77 C 39.99 169.08 39.84 170.39 39.41 171.64 C 40.33 170.38 42.60 173.14 42.54 171.36 C 40.70 169.05 40.60 165.92 42.54 163.64 C 42.61 162.06 40.34 163.41 39.36 163.36 C 39.87 164.59 40.02 165.92 40.10 167.25 C 38.56 167.25 37.02 167.25 35.48 167.26 C 35.40 165.83 35.75 164.50 36.58 163.34 C 35.52 163.34 34.46 163.33 33.41 163.31 M 63.53 163.46 C 60.42 164.30 59.39 168.81 62.14 170.68 C 64.95 173.26 70.35 170.86 69.96 166.98 C 69.68 163.98 66.18 162.45 63.53 163.46 M 87.70 163.72 C 87.53 163.96 87.20 164.44 87.03 164.68 C 88.40 164.24 89.76 163.76 91.20 163.54 C 91.20 165.99 91.66 168.58 90.56 170.88 C 89.61 172.76 94.46 172.71 93.40 170.89 C 91.93 168.69 92.58 165.99 92.56 163.53 C 93.82 163.58 95.78 165.28 96.72 163.69 C 93.72 163.48 90.68 163.19 87.70 163.72 M 114.41 163.27 C 115.32 165.95 115.26 168.88 114.48 171.58 C 116.56 171.29 118.62 171.93 120.71 171.93 C 120.84 171.53 121.12 170.74 121.26 170.35 C 119.87 170.88 118.40 171.14 116.96 171.46 C 116.75 170.49 116.35 168.55 116.15 167.58 C 116.81 167.63 118.14 167.73 118.80 167.78 L 118.75 167.23 C 118.13 167.27 116.89 167.35 116.27 167.39 C 116.29 166.41 116.33 164.44 116.35 163.45 C 118.07 163.42 119.91 165.19 121.54 164.10 C 119.21 163.51 116.80 163.40 114.41 163.27 M 139.41 163.22 C 140.41 166.00 140.14 169.00 139.41 171.80 C 141.69 171.89 145.20 172.74 146.30 170.06 C 144.96 171.55 143.03 171.10 141.27 170.93 C 141.23 168.42 141.25 165.92 141.63 163.44 C 141.07 163.39 139.96 163.28 139.41 163.22 M 52.16 177.93 C 51.86 178.42 51.24 179.40 50.94 179.89 C 50.01 180.09 49.08 180.30 48.15 180.51 C 48.61 180.90 49.51 181.68 49.97 182.07 C 49.99 182.73 50.03 184.05 50.05 184.71 C 51.37 184.09 52.77 184.01 54.19 184.34 C 54.11 182.72 54.83 181.35 55.96 180.27 C 54.41 180.06 52.73 179.57 52.16 177.93 M 77.04 179.90 C 76.33 180.02 74.91 180.25 74.20 180.37 C 74.78 180.94 75.36 181.51 75.94 182.08 C 75.97 182.74 76.03 184.05 76.06 184.71 C 77.38 184.10 78.77 184.01 80.19 184.33 C 80.16 182.81 80.79 181.47 81.78 180.35 C 80.10 180.14 78.83 179.17 77.88 177.84 C 77.67 178.35 77.25 179.38 77.04 179.90 M 100.81 180.42 C 101.64 181.71 102.01 183.17 102.17 184.69 C 103.45 184.07 104.81 184.03 106.18 184.34 C 106.29 182.81 106.70 181.35 107.82 180.27 C 106.07 180.42 105.06 179.30 104.04 178.19 C 103.13 179.19 102.19 180.13 100.81 180.42 M 126.78 180.41 C 127.65 181.68 128.00 183.17 128.17 184.69 C 129.43 184.09 130.78 184.03 132.14 184.30 C 132.33 182.81 132.66 181.27 133.87 180.25 C 132.20 180.21 130.65 179.86 130.42 177.93 C 129.41 179.04 128.28 180.06 126.78 180.41 Z" />
<path fill="#e4e4e5" opacity="1.00" d=" M 112.33 129.75 C 113.57 131.90 114.44 134.22 115.39 136.50 C 113.48 136.48 111.57 136.47 109.66 136.47 C 110.53 134.22 111.40 131.97 112.33 129.75 Z" />
<path fill="#e4e4e5" opacity="1.00" d=" M 39.23 136.51 C 40.00 134.22 40.76 131.91 42.08 129.87 C 43.10 132.06 43.98 134.32 44.88 136.56 C 43.00 136.53 41.11 136.52 39.23 136.51 Z" />
<path fill="#e4e4e5" opacity="1.00" d=" M 64.01 163.86 C 64.75 163.82 66.23 163.75 66.97 163.71 C 68.30 166.09 68.89 169.78 66.02 171.27 C 62.13 171.84 61.03 165.77 64.01 163.86 Z" />
</g>
<g id="#6c6d6eff">
<path fill="#6c6d6e" opacity="1.00" d=" M 88.89 10.96 C 90.53 11.00 92.18 11.02 93.82 11.03 C 99.60 25.72 105.84 40.22 111.55 54.94 C 105.72 54.94 100.12 57.31 96.08 61.50 C 92.47 53.00 88.85 44.52 85.48 35.92 C 84.29 37.81 83.49 39.90 82.70 41.98 C 77.94 53.79 73.11 65.58 68.39 77.41 C 68.25 77.75 67.98 78.44 67.85 78.79 C 66.17 82.59 64.77 86.51 63.07 90.30 C 61.24 89.57 59.45 88.76 57.68 87.89 C 58.23 85.50 59.21 83.26 60.17 81.03 C 69.78 57.69 79.19 34.26 88.89 10.96 Z" />
<path fill="#6c6d6e" opacity="1.00" d=" M 119.55 80.48 C 119.77 80.41 120.21 80.27 120.43 80.19 C 124.82 91.31 129.39 102.36 133.88 113.44 C 137.88 113.54 141.88 113.55 145.88 113.39 C 146.22 114.97 146.24 116.60 146.28 118.22 C 143.69 118.22 141.10 118.25 138.51 118.32 C 138.30 118.32 137.88 118.33 137.67 118.33 C 124.78 118.14 111.89 118.31 99.00 118.23 C 99.01 116.49 99.00 114.75 99.00 113.00 C 104.05 112.99 109.10 113.00 114.16 113.00 C 111.93 106.83 109.79 100.63 107.29 94.56 C 108.35 93.75 109.35 92.87 110.35 91.98 C 109.14 92.39 107.94 92.80 106.74 93.21 C 105.23 91.36 107.73 90.57 108.79 89.73 C 112.99 87.42 116.50 84.13 119.55 80.48 Z" />
<path fill="#6c6d6e" opacity="1.00" d=" M 46.69 113.58 C 49.26 108.25 51.06 102.59 53.69 97.30 C 55.31 98.33 57.14 98.90 58.96 99.44 C 57.42 104.16 55.01 108.54 53.46 113.26 C 58.48 113.25 63.50 113.22 68.52 113.27 C 68.54 114.47 68.57 115.67 68.61 116.87 C 66.10 117.40 63.53 117.27 60.99 117.25 C 51.51 117.22 42.03 117.29 32.55 117.21 C 32.53 116.28 32.51 114.43 32.50 113.51 C 37.23 113.51 41.96 113.43 46.69 113.58 Z" />
<path fill="#6c6d6e" opacity="1.00" d=" M 32.19 153.07 C 69.95 152.89 107.71 153.07 145.48 152.99 C 145.48 153.74 145.48 155.26 145.48 156.01 C 107.71 155.93 69.95 156.12 32.18 155.92 C 32.18 155.21 32.19 153.78 32.19 153.07 Z" />
</g>
<g id="#009966ff">
<path fill="#009966" opacity="1.00" d=" M 128.39 52.43 C 132.93 50.16 138.16 49.07 143.19 50.12 C 142.43 51.22 141.29 51.92 140.03 52.30 C 136.86 53.45 133.63 54.79 131.25 57.25 C 128.32 60.26 126.99 64.35 125.18 68.04 C 122.81 73.36 119.87 78.58 115.48 82.50 C 111.90 85.68 108.09 88.63 104.00 91.15 C 98.62 94.43 92.24 96.01 85.95 95.72 C 84.44 95.66 82.90 95.31 81.72 94.32 C 85.25 94.38 88.86 93.91 91.99 92.16 C 95.71 90.28 98.34 86.93 100.62 83.56 C 104.86 77.66 107.52 70.75 112.18 65.13 C 116.71 59.93 122.02 55.24 128.39 52.43 Z" />
<path fill="#009966" opacity="1.00" d=" M 97.46 62.43 C 102.46 56.83 110.59 55.37 117.77 55.78 C 114.72 58.40 111.40 60.76 108.84 63.92 C 104.90 68.19 103.46 73.95 100.80 78.99 C 98.41 83.88 95.07 88.71 90.04 91.15 C 86.06 92.79 81.67 92.67 77.45 92.91 C 77.90 92.47 78.80 91.60 79.24 91.16 C 76.55 91.28 73.63 91.35 71.32 89.74 C 67.73 87.49 66.51 82.69 67.85 78.79 C 67.98 78.44 68.25 77.75 68.39 77.41 C 69.31 79.33 70.31 82.24 72.97 82.05 C 75.57 82.41 77.92 79.42 76.97 76.97 C 76.50 75.09 74.49 74.32 73.02 73.32 C 75.84 73.28 79.03 72.78 81.44 74.63 C 84.68 76.88 86.28 81.21 84.98 84.99 C 84.38 87.85 81.68 89.31 79.68 91.11 C 83.06 90.16 85.81 87.72 87.93 85.01 C 92.95 78.31 92.29 69.03 97.46 62.43 Z" />
<path fill="#009966" opacity="1.00" d=" M 39.13 73.92 C 49.89 86.45 65.13 96.11 81.96 96.94 C 90.35 97.19 98.79 95.90 106.74 93.21 C 107.94 92.80 109.14 92.39 110.35 91.98 C 109.35 92.87 108.35 93.75 107.29 94.56 C 87.99 106.07 62.57 102.84 44.54 90.35 C 41.75 88.26 38.53 85.83 38.07 82.10 C 37.23 79.32 38.29 76.55 39.13 73.92 Z" />
<path fill="#009966" opacity="1.00" d=" M 67.43 124.67 C 69.36 125.27 71.42 125.41 73.29 126.24 C 73.75 126.04 74.67 125.63 75.13 125.43 C 75.26 127.59 75.30 129.76 75.26 131.93 C 73.92 129.59 72.89 126.46 69.94 125.79 C 67.45 124.81 64.39 125.69 62.80 127.83 C 59.17 132.10 59.00 139.02 62.69 143.31 C 64.87 145.68 69.36 146.34 71.41 143.45 C 73.20 141.63 72.21 138.06 69.40 138.21 C 69.39 138.07 69.36 137.79 69.35 137.65 C 72.44 137.79 75.53 137.80 78.62 137.66 C 78.60 137.81 78.57 138.11 78.55 138.25 C 77.87 138.39 76.50 138.65 75.82 138.78 C 75.69 140.36 75.58 141.94 75.56 143.53 C 70.92 145.79 65.23 146.96 60.50 144.27 C 54.44 140.54 54.97 130.38 60.89 126.74 C 62.81 125.39 65.22 125.26 67.43 124.67 Z" />
<path fill="#009966" opacity="1.00" d=" M 79.06 125.29 C 82.68 125.22 86.30 125.22 89.92 125.29 C 88.55 125.88 86.50 126.17 86.27 127.97 C 85.82 132.33 85.88 136.75 86.25 141.11 C 86.42 143.10 87.97 145.01 90.04 145.17 C 92.49 145.41 96.27 145.87 97.01 142.72 C 97.23 142.84 97.67 143.08 97.90 143.21 L 98.23 143.58 L 98.50 143.88 C 96.13 144.88 93.70 146.15 91.03 145.81 C 87.99 145.86 84.06 145.22 82.88 141.94 C 82.42 137.30 83.15 132.60 82.50 127.97 C 82.39 126.18 80.35 125.94 79.06 125.29 Z" />
</g>
<g id="#019967ff">
<path fill="#019967" opacity="1.00" d=" M 137.67 118.33 C 137.88 118.33 138.30 118.32 138.51 118.32 C 138.72 118.68 139.13 119.40 139.34 119.76 C 137.25 120.98 135.22 122.39 132.89 123.14 C 134.20 121.28 135.94 119.79 137.67 118.33 Z" />
<path fill="#019967" opacity="1.00" d=" M 94.87 125.29 C 97.55 125.22 100.24 125.25 102.93 125.28 C 101.61 125.94 99.25 126.12 99.33 128.06 C 99.21 133.27 99.37 138.49 98.59 143.64 L 98.23 143.58 L 97.90 143.21 C 98.61 138.19 98.69 133.09 98.37 128.03 C 98.15 126.24 96.28 125.79 94.87 125.29 Z" />
<path fill="#019967" opacity="1.00" d=" M 124.87 125.18 C 128.31 125.26 131.75 125.22 135.20 125.24 C 134.13 125.76 131.44 126.09 132.68 127.83 C 133.85 130.48 135.84 132.65 137.34 135.11 C 139.33 132.53 142.26 129.87 141.86 126.31 C 141.16 126.09 139.75 125.64 139.04 125.42 C 141.70 125.23 144.38 125.21 147.05 125.21 C 143.40 126.65 141.63 130.38 139.33 133.29 C 137.29 135.68 137.62 139.03 137.87 141.94 C 137.75 143.82 139.55 144.73 140.86 145.62 C 137.63 145.02 134.33 145.11 131.09 145.53 C 132.05 145.02 133.00 144.49 133.95 143.98 C 134.61 140.72 135.08 136.93 132.78 134.17 C 130.23 131.12 128.71 126.90 124.87 125.18 Z" />
</g>
<g id="#019966ff">
<path fill="#019966" opacity="1.00" d=" M 42.64 125.62 C 42.90 125.44 43.41 125.08 43.66 124.90 C 46.37 130.69 48.77 136.64 51.55 142.41 C 52.24 143.94 53.86 144.64 55.15 145.58 C 51.70 145.23 48.15 146.00 44.78 145.18 C 45.96 144.60 48.47 143.98 47.29 142.14 C 46.75 140.51 45.99 138.98 45.25 137.44 C 43.08 137.50 40.91 137.52 38.74 137.51 C 37.78 139.54 36.82 141.64 36.94 143.95 C 37.52 144.25 38.68 144.83 39.26 145.12 C 36.88 145.91 34.33 145.37 31.87 145.63 C 33.37 144.59 35.00 143.55 35.73 141.80 C 38.25 136.50 40.11 130.90 42.64 125.62 M 39.23 136.51 C 41.11 136.52 43.00 136.53 44.88 136.56 C 43.98 134.32 43.10 132.06 42.08 129.87 C 40.76 131.91 40.00 134.22 39.23 136.51 Z" />
<path fill="#019966" opacity="1.00" d=" M 113.32 124.93 C 115.05 125.53 115.26 127.58 116.03 128.99 C 118.33 134.04 120.30 139.25 123.02 144.09 C 124.03 144.53 125.05 144.98 126.03 145.50 C 122.34 145.52 118.66 145.50 114.97 145.52 C 115.93 144.91 116.95 144.39 118.00 143.96 C 117.87 141.71 116.85 139.70 116.02 137.65 C 113.69 137.39 111.35 137.47 109.02 137.59 C 108.39 139.45 107.73 141.29 107.06 143.13 C 108.00 143.97 108.96 144.80 109.94 145.60 C 107.34 145.48 104.73 145.48 102.13 145.57 C 103.92 144.64 105.66 143.39 106.40 141.43 C 108.84 135.99 110.97 130.41 113.32 124.93 M 112.33 129.75 C 111.40 131.97 110.53 134.22 109.66 136.47 C 111.57 136.47 113.48 136.48 115.39 136.50 C 114.44 134.22 113.57 131.90 112.33 129.75 Z" />
</g>
<g id="#6e6f70ff">
<path fill="#6e6f70" opacity="1.00" d=" M 33.41 163.31 C 34.46 163.33 35.52 163.34 36.58 163.34 C 35.75 164.50 35.40 165.83 35.48 167.26 C 37.02 167.25 38.56 167.25 40.10 167.25 C 40.02 165.92 39.87 164.59 39.36 163.36 C 40.34 163.41 42.61 162.06 42.54 163.64 C 40.60 165.92 40.70 169.05 42.54 171.36 C 42.60 173.14 40.33 170.38 39.41 171.64 C 39.84 170.39 39.99 169.08 40.11 167.77 C 38.56 167.75 37.02 167.74 35.47 167.72 C 35.15 169.22 36.69 170.37 36.52 171.76 C 35.66 172.42 33.70 172.57 33.41 171.32 C 34.41 168.80 34.89 165.75 33.41 163.31 Z" />
<path fill="#6e6f70" opacity="1.00" d=" M 63.53 163.46 C 66.18 162.45 69.68 163.98 69.96 166.98 C 70.35 170.86 64.95 173.26 62.14 170.68 C 59.39 168.81 60.42 164.30 63.53 163.46 M 64.01 163.86 C 61.03 165.77 62.13 171.84 66.02 171.27 C 68.89 169.78 68.30 166.09 66.97 163.71 C 66.23 163.75 64.75 163.82 64.01 163.86 Z" />
<path fill="#6e6f70" opacity="1.00" d=" M 87.70 163.72 C 90.68 163.19 93.72 163.48 96.72 163.69 C 95.78 165.28 93.82 163.58 92.56 163.53 C 92.58 165.99 91.93 168.69 93.40 170.89 C 94.46 172.71 89.61 172.76 90.56 170.88 C 91.66 168.58 91.20 165.99 91.20 163.54 C 89.76 163.76 88.40 164.24 87.03 164.68 C 87.20 164.44 87.53 163.96 87.70 163.72 Z" />
<path fill="#6e6f70" opacity="1.00" d=" M 114.41 163.27 C 116.80 163.40 119.21 163.51 121.54 164.10 C 119.91 165.19 118.07 163.42 116.35 163.45 C 116.33 164.44 116.29 166.41 116.27 167.39 C 116.89 167.35 118.13 167.27 118.75 167.23 L 118.80 167.78 C 118.14 167.73 116.81 167.63 116.15 167.58 C 116.35 168.55 116.75 170.49 116.96 171.46 C 118.40 171.14 119.87 170.88 121.26 170.35 C 121.12 170.74 120.84 171.53 120.71 171.93 C 118.62 171.93 116.56 171.29 114.48 171.58 C 115.26 168.88 115.32 165.95 114.41 163.27 Z" />
<path fill="#6e6f70" opacity="1.00" d=" M 139.41 163.22 C 139.96 163.28 141.07 163.39 141.63 163.44 C 141.25 165.92 141.23 168.42 141.27 170.93 C 143.03 171.10 144.96 171.55 146.30 170.06 C 145.20 172.74 141.69 171.89 139.41 171.80 C 140.14 169.00 140.41 166.00 139.41 163.22 Z" />
<path fill="#6e6f70" opacity="1.00" d=" M 77.04 179.90 C 77.25 179.38 77.67 178.35 77.88 177.84 C 78.83 179.17 80.10 180.14 81.78 180.35 C 80.79 181.47 80.16 182.81 80.19 184.33 C 78.77 184.01 77.38 184.10 76.06 184.71 C 76.03 184.05 75.97 182.74 75.94 182.08 C 75.36 181.51 74.78 180.94 74.20 180.37 C 74.91 180.25 76.33 180.02 77.04 179.90 Z" />
<path fill="#6e6f70" opacity="1.00" d=" M 100.81 180.42 C 102.19 180.13 103.13 179.19 104.04 178.19 C 105.06 179.30 106.07 180.42 107.82 180.27 C 106.70 181.35 106.29 182.81 106.18 184.34 C 104.81 184.03 103.45 184.07 102.17 184.69 C 102.01 183.17 101.64 181.71 100.81 180.42 Z" />
<path fill="#6e6f70" opacity="1.00" d=" M 126.78 180.41 C 128.28 180.06 129.41 179.04 130.42 177.93 C 130.65 179.86 132.20 180.21 133.87 180.25 C 132.66 181.27 132.33 182.81 132.14 184.30 C 130.78 184.03 129.43 184.09 128.17 184.69 C 128.00 183.17 127.65 181.68 126.78 180.41 Z" />
</g>
<g id="#6d6e6fff">
<path fill="#6d6e6f" opacity="1.00" d=" M 52.16 177.93 C 52.73 179.57 54.41 180.06 55.96 180.27 C 54.83 181.35 54.11 182.72 54.19 184.34 C 52.77 184.01 51.37 184.09 50.05 184.71 C 50.03 184.05 49.99 182.73 49.97 182.07 C 49.51 181.68 48.61 180.90 48.15 180.51 C 49.08 180.30 50.01 180.09 50.94 179.89 C 51.24 179.40 51.86 178.42 52.16 177.93 Z" />
</g>
</svg>
