<svg xmlns="http://www.w3.org/2000/svg" viewBox="0 0 115.2 173.8"><g fill="#FFF"><path d="M57 0c1.6 0 3.3.1 4.9.1C67.7 14.8 74 29.3 79.7 44c-5.8 0-11.4 2.4-15.5 6.6C60.6 42 57 33.6 53.6 25c-1.2 1.9-2 4-2.8 6.1-4.8 11.8-9.6 23.6-14.3 35.4-.1.3-.4 1-.5 1.4-1.7 3.8-3.1 7.7-4.8 11.5-1.8-.7-3.6-1.5-5.4-2.4.5-2.4 1.5-4.6 2.5-6.9C37.9 46.7 47.3 23.3 57 0zM87.7 69.5c.2-.1.7-.2.9-.3 4.4 11.1 9 22.2 13.5 33.3 4 .1 8 .1 12-.1.3 1.6.4 3.2.4 4.8-2.6 0-5.2 0-7.8.1h-.8c-12.9-.2-25.8 0-38.7-.1V102h15.2c-2.2-6.2-4.4-12.4-6.9-18.4 1.1-.8 2.1-1.7 3.1-2.6L75 82.2c-1.5-1.8 1-2.6 2.1-3.5 4-2.2 7.5-5.5 10.6-9.2zM14.8 102.6c2.6-5.3 4.4-11 7-16.3 1.6 1 3.5 1.6 5.3 2.1-1.5 4.7-4 9.1-5.5 13.8h15.1c0 1.2.1 2.4.1 3.6-2.5.5-5.1.4-7.6.4H.8v-3.7c4.6.1 9.3 0 14 .1zM.3 142.1c37.8-.2 75.5 0 113.3-.1v3c-37.8 0-75.5.2-113.3 0v-2.9z"/></g><g fill="#FFF"><path d="M96.5 41.5c4.5-2.3 9.8-3.4 14.8-2.3-.8 1.1-1.9 1.8-3.2 2.2-3.2 1.2-6.4 2.5-8.8 5-2.9 3-4.3 7.1-6.1 10.8-2.4 5.3-5.3 10.5-9.7 14.5-3.6 3.2-7.4 6.1-11.5 8.7-5.4 3.3-11.8 4.9-18.1 4.6-1.5-.1-3-.4-4.2-1.4 3.5.1 7.1-.4 10.3-2.2 3.7-1.9 6.3-5.2 8.6-8.6 4.2-5.9 6.9-12.8 11.6-18.4 4.6-5.4 9.9-10.1 16.3-12.9z"/><path d="M65.6 51.5c5-5.6 13.1-7.1 20.3-6.7-3 2.6-6.4 5-8.9 8.1-3.9 4.3-5.4 10-8 15.1-2.4 4.9-5.7 9.7-10.8 12.2-4 1.6-8.4 1.5-12.6 1.8.5-.4 1.4-1.3 1.8-1.8-2.7.1-5.6.2-7.9-1.4-3.6-2.3-4.8-7-3.5-10.9.1-.3.4-1 .5-1.4.9 1.9 1.9 4.8 4.6 4.6 2.6.4 4.9-2.6 4-5.1-.5-1.9-2.5-2.7-4-3.7 2.8 0 6-.5 8.4 1.3 3.2 2.3 4.8 6.6 3.5 10.4-.6 2.9-3.3 4.3-5.3 6.1 3.4-.9 6.1-3.4 8.3-6.1 5.1-6.7 4.4-15.9 9.6-22.5z"/><path d="M7.3 63c10.8 12.5 26 22.2 42.8 23 8.4.3 16.8-1 24.8-3.7l3.6-1.2c-1 .9-2 1.8-3.1 2.6-19.3 11.5-44.7 8.3-62.8-4.2-2.8-2.1-6-4.5-6.5-8.3-.7-2.8.3-5.6 1.2-8.2zM35.6 113.7c1.9.6 4 .7 5.9 1.6.5-.2 1.4-.6 1.8-.8.1 2.2.2 4.3.1 6.5-1.3-2.3-2.4-5.5-5.3-6.1-2.5-1-5.6-.1-7.1 2-3.6 4.3-3.8 11.2-.1 15.5 2.2 2.4 6.7 3 8.7.1 1.8-1.8.8-5.4-2-5.2 0-.1 0-.4-.1-.6 3.1.1 6.2.2 9.3 0 0 .1-.1.4-.1.6-.7.1-2.1.4-2.7.5-.1 1.6-.2 3.2-.3 4.7-4.6 2.3-10.3 3.4-15.1.7-6.1-3.7-5.5-13.9.4-17.5 1.9-1.3 4.3-1.4 6.6-2zM47.2 114.3c3.6-.1 7.2-.1 10.9 0-1.4.6-3.4.9-3.7 2.7-.4 4.4-.4 8.8 0 13.1.2 2 1.7 3.9 3.8 4.1 2.4.2 6.2.7 7-2.4.2.1.7.4.9.5l.3.4.3.3c-2.4 1-4.8 2.3-7.5 1.9-3 .1-7-.6-8.2-3.9-.5-4.6.3-9.3-.4-14-.1-1.8-2.1-2-3.4-2.7z"/></g><g fill="#FFF"><path d="M105.8 107.4h.8c.2.4.6 1.1.8 1.4-2.1 1.2-4.1 2.6-6.4 3.4 1.3-1.9 3.1-3.4 4.8-4.8zM63 114.3c2.7-.1 5.4 0 8.1 0-1.3.7-3.7.8-3.6 2.8-.1 5.2 0 10.4-.7 15.6l-.4-.1-.3-.4c.7-5 .8-10.1.5-15.2-.3-1.7-2.2-2.2-3.6-2.7zM93 114.2c3.4.1 6.9 0 10.3.1-1.1.5-3.8.8-2.5 2.6 1.2 2.6 3.2 4.8 4.7 7.3 2-2.6 4.9-5.2 4.5-8.8-.7-.2-2.1-.7-2.8-.9 2.7-.2 5.3-.2 8-.2-3.7 1.4-5.4 5.2-7.7 8.1-2 2.4-1.7 5.7-1.5 8.7-.1 1.9 1.7 2.8 3 3.7-3.2-.6-6.5-.5-9.8-.1 1-.5 1.9-1 2.9-1.6.7-3.3 1.1-7-1.2-9.8-2.5-3.1-4.1-7.4-7.9-9.1z"/></g><g fill="#FFF"><path d="M10.8 114.7c.3-.2.8-.5 1-.7 2.7 5.8 5.1 11.7 7.9 17.5.7 1.5 2.3 2.2 3.6 3.2-3.5-.4-7 .4-10.4-.4 1.2-.6 3.7-1.2 2.5-3-.5-1.6-1.3-3.2-2-4.7-2.2.1-4.3.1-6.5.1-1 2-1.9 4.1-1.8 6.4.6.3 1.7.9 2.3 1.2-2.4.8-4.9.3-7.4.5 1.5-1 3.1-2.1 3.9-3.8 2.5-5.5 4.3-11.1 6.9-16.3m-3.4 10.8c1.9 0 3.8 0 5.7.1-.9-2.2-1.8-4.5-2.8-6.7-1.4 2.1-2.2 4.4-2.9 6.6zM81.4 114c1.7.6 1.9 2.7 2.7 4.1 2.3 5 4.3 10.3 7 15.1 1 .4 2 .9 3 1.4H83c1-.6 2-1.1 3-1.6-.1-2.3-1.2-4.3-2-6.3-2.3-.3-4.7-.2-7-.1-.6 1.9-1.3 3.7-2 5.5.9.8 1.9 1.7 2.9 2.5-2.6-.1-5.2-.1-7.8 0 1.8-.9 3.5-2.2 4.3-4.1 2.6-5.5 4.7-11 7-16.5m-.9 4.8c-.9 2.2-1.8 4.5-2.7 6.7h5.7c-.9-2.2-1.8-4.6-3-6.7z"/></g><g fill="#FFF"><path d="M1.5 152.3h3.2c-.8 1.2-1.2 2.5-1.1 3.9h4.6c-.1-1.3-.2-2.7-.7-3.9 1 .1 3.3-1.3 3.2.3-1.9 2.3-1.8 5.4 0 7.7.1 1.8-2.2-1-3.1.3.4-1.3.6-2.6.7-3.9-1.5 0-3.1 0-4.6-.1-.3 1.5 1.2 2.6 1 4-.9.7-2.8.8-3.1-.4.9-2.4 1.4-5.4-.1-7.9zM31.7 152.5c2.6-1 6.1.5 6.4 3.5.4 3.9-5 6.3-7.8 3.7-2.8-1.9-1.8-6.4 1.4-7.2m.4.4c-3 1.9-1.9 8 2 7.4 2.9-1.5 2.3-5.2 1-7.6-.7.1-2.2.2-3 .2zM55.8 152.8c3-.5 6-.2 9 0-.9 1.6-2.9-.1-4.2-.2 0 2.5-.6 5.2.8 7.4 1.1 1.8-3.8 1.9-2.8 0 1.1-2.3.6-4.9.6-7.3-1.4.2-2.8.7-4.2 1.1.3-.3.7-.8.8-1zM82.5 152.3c2.4.1 4.8.2 7.1.8-1.6 1.1-3.5-.7-5.2-.7 0 1-.1 3-.1 3.9.6 0 1.9-.1 2.5-.2l.1.6c-.7-.1-2-.1-2.7-.2.2 1 .6 2.9.8 3.9 1.4-.3 2.9-.6 4.3-1.1-.1.4-.4 1.2-.6 1.6-2.1 0-4.2-.6-6.2-.3.9-2.7.9-5.6 0-8.3zM107.5 152.3c.6.1 1.7.2 2.2.2-.4 2.5-.4 5-.4 7.5 1.8.2 3.7.6 5-.9-1.1 2.7-4.6 1.8-6.9 1.7.9-2.8 1.1-5.8.1-8.5zM45.2 168.9c.2-.5.6-1.5.8-2.1 1 1.3 2.2 2.3 3.9 2.5-1 1.1-1.6 2.5-1.6 4-1.4-.3-2.8-.2-4.1.4 0-.7-.1-2-.1-2.6-.6-.6-1.2-1.1-1.7-1.7.6-.1 2.1-.3 2.8-.5zM68.9 169.5c1.4-.3 2.3-1.2 3.2-2.2 1 1.1 2 2.2 3.8 2.1-1.1 1.1-1.5 2.5-1.6 4.1-1.4-.3-2.7-.3-4 .4-.2-1.7-.5-3.1-1.4-4.4zM94.9 169.4c1.5-.4 2.6-1.4 3.6-2.5.2 1.9 1.8 2.3 3.4 2.3-1.2 1-1.5 2.6-1.7 4.1-1.4-.3-2.7-.2-4 .4-.1-1.5-.4-3-1.3-4.3z"/></g><path fill="#FFF" d="M20.3 167c.6 1.6 2.3 2.1 3.8 2.3-1.1 1.1-1.8 2.4-1.8 4.1-1.4-.3-2.8-.3-4.1.4 0-.7-.1-2-.1-2.6-.5-.4-1.4-1.2-1.8-1.6.9-.2 1.9-.4 2.8-.6.3-.6.9-1.5 1.2-2z"/></svg>