<?xml version="1.0" encoding="iso-8859-1"?>
<!-- Generator: Adobe Illustrator 19.0.0, SVG Export Plug-In . SVG Version: 6.00 Build 0)  -->
<svg version="1.1" id="Capa_1" xmlns="http://www.w3.org/2000/svg" xmlns:xlink="http://www.w3.org/1999/xlink" x="0px" y="0px"
	 viewBox="0 0 357.6 357.6" style="enable-background:new 0 0 357.6 357.6;" xml:space="preserve" fill="#fff">
<g>
	<g>
		<path d="M351.2,27.8H6.4c-3.6,0-6.4,2.8-6.4,6.4v263.2c0,3.6,2.8,6.4,6.4,6.4h42.8v19.6c0,3.6,2.8,6.4,6.4,6.4h52.8
			c3.6,0,6.4-2.8,6.4-6.4v-19.6h128v19.6c0,3.6,2.8,6.4,6.4,6.4H302c3.6,0,6.4-2.8,6.4-6.4v-19.6h42.8c3.6,0,6.4-2.8,6.4-6.4V34.2
			C357.6,30.6,354.8,27.8,351.2,27.8z M102,316.6H62v-13.2h40V316.6z M295.6,316.6h-40v-13.2h40V316.6z M302,291h-52.8H108.4H55.6
			H12.8V40.6h331.6V291H302z"/>
	</g>
</g>
<g>
	<g>
		<path d="M320.8,57.4H54.4c-3.6,0-6.4,2.8-6.4,6.4V85H38c-3.6,0-6.4,2.8-6.4,6.4v46.8c0,3.6,2.8,6.4,6.4,6.4h10v42H38
			c-3.6,0-6.4,2.8-6.4,6.4v46.8c0,3.6,2.8,6.4,6.4,6.4h10v21.2c0,3.6,2.8,6.4,6.4,6.4h266.4c3.6,0,6.4-2.8,6.4-6.4V63.8
			C327.2,60.2,324.4,57.4,320.8,57.4z M44.4,131.8c0,0,0-34,0-34h10h10v34h-10H44.4z M44.4,233.4c0,0,0-34,0-34h10h10v34h-10H44.4z
			 M314.4,261H60.8v-14.8h10c3.6,0,6.4-2.8,6.4-6.4V193c0-3.6-2.8-6.4-6.4-6.4h-10v-42h10c3.6,0,6.4-2.8,6.4-6.4V91.4
			c0-3.6-2.8-6.4-6.4-6.4h-10V70.2h253.6V261z"/>
	</g>
</g>
<g>
	<g>
		<path d="M245.6,119c-25.6,0-46.4,20.8-46.4,46.4c0.4,25.6,21.2,46.4,46.4,46.4c25.6,0,46.4-20.8,46.4-46.4
			C292,139.8,271.2,119,245.6,119z M245.6,199.4c-18.4,0-33.6-15.2-33.6-33.6c0-18.4,15.2-33.6,33.6-33.6
			c18.4,0,33.6,15.2,33.6,33.6S264,199.4,245.6,199.4z"/>
	</g>
</g>
<g>
	<g>
		<path d="M245.6,143.8c-12,0-21.6,9.6-21.6,21.6c0.4,12,10,21.6,21.6,21.6c12,0,21.6-9.6,21.6-21.6S257.6,143.8,245.6,143.8z
			 M245.6,174.6c-4.8,0-8.8-4-8.8-8.8c0.4-4.8,4-8.8,8.8-8.8s8.8,4,8.8,8.8C254.4,170.6,250.4,174.6,245.6,174.6z"/>
	</g>
</g>
<g>
</g>
<g>
</g>
<g>
</g>
<g>
</g>
<g>
</g>
<g>
</g>
<g>
</g>
<g>
</g>
<g>
</g>
<g>
</g>
<g>
</g>
<g>
</g>
<g>
</g>
<g>
</g>
<g>
</g>
</svg>
