<?xml version="1.0" encoding="utf-8"?>
<!-- Generator: Adobe Illustrator 21.0.0, SVG Export Plug-In . SVG Version: 6.00 Build 0)  -->
<svg version="1.1" id="Capa_1" xmlns="http://www.w3.org/2000/svg" xmlns:xlink="http://www.w3.org/1999/xlink" x="0px" y="0px"
	 viewBox="0 0 850 101.8" style="enable-background:new 0 0 850 101.8;" xml:space="preserve">
<style type="text/css">
	.st0{fill:#FAC917;}
	.st1{fill:#FFFFFF;}
</style>
<polygon class="st0" points="501.5,0 518,33.5 555,38.9 528.2,64.9 534.6,101.8 501.5,84.4 468.4,101.8 474.8,64.9 448,38.9 
	485,33.5 "/>
<polygon class="st0" points="361.5,0 378,33.5 415,38.9 388.2,64.9 394.6,101.8 361.5,84.4 328.4,101.8 334.8,64.9 308,38.9 
	345,33.5 "/>
<polygon class="st0" points="641.5,0 658,33.5 695,38.9 668.2,64.9 674.6,101.8 641.5,84.4 608.4,101.8 614.8,64.9 588,38.9 
	625,33.5 "/>
<polygon class="st0" points="221.5,0 238,33.5 275,38.9 248.2,64.9 254.6,101.8 221.5,84.4 188.4,101.8 194.8,64.9 168,38.9 
	205,33.5 "/>
<path class="st1" d="M849,51.9L730.5,63.3c-5.7,0.3-10.5-4.2-10.5-9.9v-5c0-5.7,4.8-10.2,10.5-9.9L849,49.8c0.6,0,1,0.5,1,1.1v0
	C850,51.4,849.6,51.9,849,51.9z"/>
<path class="st1" d="M1,49.8l118.5-11.3c5.7-0.3,10.5,4.2,10.5,9.9v5c0,5.7-4.8,10.2-10.5,9.9L1,51.9c-0.6,0-1-0.5-1-1.1v0
	C0,50.3,0.4,49.9,1,49.8z"/>
</svg>
